<svg width="16" height="21" viewBox="0 0 16 21" fill="none" xmlns="http://www.w3.org/2000/svg">
<g clip-path="url(#clip0)">
<path d="M13.1447 12.3634C13.831 11.1106 14.1768 9.69304 14.1768 8.15573V7.6566H11.2482V8.15573C11.2482 8.6848 11.1906 9.19391 11.0806 9.68305L5.63196 2.59546H12.3012V0H0L4.54748 6.02945C4.40603 6.11929 4.23838 6.22411 4.03929 6.34889C3.00197 7.03269 2.20039 7.75643 1.51932 8.62491C0.843484 9.49339 0.497708 10.5116 0.497708 11.6496C0.497708 12.6129 0.75966 13.4614 1.28356 14.1802C1.79699 14.884 2.49902 15.433 3.3687 15.8073C4.21742 16.1717 5.16045 16.3564 6.16634 16.3564C7.19319 16.3564 8.15717 16.1967 9.03209 15.8822C9.79699 15.6077 10.4938 15.2284 11.1172 14.7442L12.1231 16.0769H16.0052L13.1447 12.3634ZM9.50884 12.6129C8.62868 13.4015 7.59136 13.7859 6.34447 13.7859C5.50622 13.7859 4.84087 13.5862 4.30648 13.1819C3.80878 12.8026 3.56254 12.2885 3.56254 11.6097C3.56254 11.0107 3.74591 10.4817 4.12836 9.9975C4.47937 9.54829 5.02423 9.08909 5.82056 8.56501C5.99345 8.46019 6.14014 8.37534 6.26064 8.30047L9.50884 12.6129Z" fill="#C7C4C0"/>
<path d="M16 17.7673H0V20.6241H16V17.7673Z" fill="#C7C4C0"/>
</g>
<defs>
<clipPath id="clip0">
<rect width="16" height="21" fill="white"/>
</clipPath>
</defs>
</svg>
