<svg width="153" height="21" viewBox="0 0 153 21" fill="none" xmlns="http://www.w3.org/2000/svg">
<path d="M20.4915 0H23.8111V17.7422H34.4936V20.6241H20.4915V0Z" fill="#555555"/>
<path d="M39.8849 18.9952C38.3873 17.6671 37.6635 15.6623 37.6635 12.9809V0H40.9831V13.0561C40.9831 14.71 41.4324 15.9881 42.3558 16.8652C43.2544 17.7422 44.5523 18.1683 46.1996 18.1683C47.8718 18.1683 49.1697 17.7422 50.0932 16.8652C51.0167 15.9881 51.466 14.7351 51.466 13.0561V0H54.7855V12.9809C54.7855 15.6623 54.0368 17.6671 52.5642 18.9952C51.0666 20.3234 48.9451 20.9749 46.1996 20.9749C43.479 21 41.3575 20.3234 39.8849 18.9952Z" fill="#555555"/>
<path d="M108.323 0H111.643V20.6241H108.323V0Z" fill="#555555"/>
<path d="M116.385 0H119.704V10.9511L130.162 0H134.206L126.319 8.29475L134.43 20.6241H130.537L124.097 10.6504L119.729 14.6098V20.6241H116.41V0H116.385Z" fill="#555555"/>
<path d="M75.3768 17.7673H62.5977V20.6241H75.3768V17.7673Z" fill="#555555"/>
<path d="M75.2021 0H62.5977V2.8568H75.2021V0Z" fill="#555555"/>
<path d="M73.8793 8.67062H62.5977V11.5274H73.8793V8.67062Z" fill="#555555"/>
<path d="M152.8 0H140.196V2.8568H152.8V0Z" fill="#555555"/>
<path d="M151.477 8.67062H140.196V11.5274H151.477V8.67062Z" fill="#555555"/>
<path d="M152.975 17.7673H140.196V20.6241H152.975V17.7673Z" fill="#555555"/>
<path d="M0 0H10.4829C11.606 0 12.6044 0.200477 13.453 0.626492C14.3016 1.05251 15.0005 1.65394 15.4997 2.40573C15.9989 3.18258 16.2235 4.08473 16.2235 5.08711C16.2235 6.23986 15.899 7.21718 15.275 8.06921C14.6511 8.92124 13.8274 9.49761 12.8041 9.82339V9.94869C14.0271 10.1742 14.9755 10.7506 15.6993 11.6527C16.4232 12.5549 16.7976 13.6826 16.7976 15.0609C16.7976 16.9153 16.2235 18.2936 15.0504 19.2208C13.9023 20.173 12.3798 20.6241 10.4829 20.6241H0V0ZM9.7341 8.62053C10.6825 8.62053 11.4313 8.34487 12.0054 7.81862C12.5794 7.29236 12.854 6.59069 12.854 5.73866C12.854 4.7864 12.6044 4.05967 12.0803 3.58353C11.5561 3.1074 10.8323 2.8568 9.93377 2.8568H3.31958V8.62053H9.7341ZM10.2333 17.7673C11.2316 17.7673 12.0054 17.5167 12.5794 17.0155C13.1285 16.5143 13.4281 15.7375 13.4281 14.6599C13.4281 13.6074 13.1285 12.8305 12.5545 12.2792C11.9804 11.753 11.1318 11.4773 10.0086 11.4773H3.31958V17.7673H10.2333Z" fill="#555555"/>
<path d="M87.5819 0H98.0648C99.1879 0 100.186 0.200477 101.035 0.626492C101.884 1.05251 102.582 1.65394 103.082 2.40573C103.581 3.18258 103.805 4.05967 103.805 5.06205C103.805 6.2148 103.481 7.19212 102.857 8.04415C102.233 8.89618 101.409 9.47255 100.386 9.79833V9.92363C101.584 10.1742 102.557 10.7506 103.281 11.6527C104.005 12.5549 104.379 13.6826 104.379 15.0609C104.379 16.9153 103.805 18.2936 102.632 19.2208C101.484 20.148 99.9367 20.6241 98.0398 20.6241H87.5569V0H87.5819ZM97.316 8.62053C98.2644 8.62053 99.0132 8.34487 99.5873 7.81862C100.161 7.29236 100.436 6.59069 100.436 5.73866C100.436 4.7864 100.186 4.05967 99.6622 3.58353C99.138 3.1074 98.4392 2.8568 97.5406 2.8568H90.9264V8.62053H97.316ZM97.8152 17.7673C98.8135 17.7673 99.5873 17.5167 100.161 17.0155C100.71 16.5143 101.01 15.7375 101.01 14.6599C101.01 13.6074 100.71 12.8305 100.136 12.2792C99.5623 11.7279 98.7137 11.4773 97.5905 11.4773H90.9015V17.7673H97.8152Z" fill="#555555"/>
</svg>
