<svg width="446" height="641" viewBox="0 0 446 641" fill="none" xmlns="http://www.w3.org/2000/svg">
<path d="M223.217 0.979492C100.672 0.979492 0.9729 100.679 0.9729 223.223C0.9729 377.248 223.435 640.354 223.435 640.354C223.435 640.354 445.46 369.674 445.46 223.223C445.46 100.679 345.765 0.979492 223.217 0.979492ZM290.272 288.296C271.782 306.782 247.501 316.027 223.217 316.027C198.936 316.027 174.647 306.782 156.165 288.296C119.189 251.325 119.189 191.165 156.165 154.189C174.069 136.277 197.886 126.412 223.217 126.412C248.547 126.412 272.36 136.281 290.272 154.189C327.248 191.165 327.248 251.325 290.272 288.296Z" fill="#555555"/>
</svg>
